<?xml version="1.0" encoding="utf-8"?>
<!-- Generator: Adobe Illustrator 19.0.0, SVG Export Plug-In . SVG Version: 6.00 Build 0)  -->
<svg version="1.1" id="Layer_1" xmlns="http://www.w3.org/2000/svg" xmlns:xlink="http://www.w3.org/1999/xlink" x="0px" y="0px"
	 viewBox="0 0 50 50" style="enable-background:new 0 0 50 50;" xml:space="preserve">
<style type="text/css">
	.st0{fill:#FFFFFF;}
</style>
<g id="XMLID_3_">
	<path id="XMLID_6_" class="st0" d="M29,25.8c-1.6-1.7-3.3-3.4-5-5.2c-1.8,1.8-3.5,3.6-5.2,5.3c-1-1-1.8-1.8-2.5-2.6
		c2.5-2.5,5.1-5.1,7.8-7.8c1.5,1.6,3.3,3.4,5,5.1c1.9-1.9,3.6-3.6,5.4-5.4c0.9,1,1.8,1.8,2.5,2.6C34.4,20.5,31.7,23.1,29,25.8z"/>
	<path id="XMLID_7_" class="st0" d="M26.9,31.3c-2-2-3.9-3.8-5.7-5.6c0.9-0.9,1.8-1.8,2.6-2.6c2.7,2.8,5.5,5.5,8.1,8.2
		c-2.6,2.6-5.3,5.3-8,8c-0.7-0.8-1.6-1.7-2.5-2.6C23,35,24.9,33.2,26.9,31.3z"/>
	<path id="XMLID_8_" class="st0" d="M20.7,27.6c0.9,0.9,1.7,1.7,2.6,2.5c-2.9,2.9-5.8,5.8-8.7,8.7c-0.8-0.8-1.7-1.7-2.5-2.6
		C14.8,33.4,17.7,30.5,20.7,27.6z"/>
	
		<rect id="XMLID_9_" x="26.8" y="13.1" transform="matrix(0.7071 0.7071 -0.7071 0.7071 19.4976 -16.0808)" class="st0" width="4.7" height="4.7"/>
	<polygon id="XMLID_10_" class="st0" points="46.1,45.6 46.3,44.2 25.4,41 6.5,43.9 11.5,24.8 6.6,6.1 24.2,11.1 44.2,6 39.1,24.8 
		44.8,45.9 46.1,45.6 46.3,44.2 46.1,45.6 47.4,45.2 41.9,24.8 48,2.2 24.3,8.3 2.7,2.2 8.7,24.8 2.8,47.2 25.4,43.7 47.9,47.2 
		47.4,45.2 	"/>
</g>
</svg>
